<svg xmlns="http://www.w3.org/2000/svg" viewBox="0 0 248.283 232.283">
  <title>logo-glasgow</title>
  <g>
    <g>
      <path d="M132.542,73.642h-1.5a2.83,2.83,0,0,0-3-2.8,2.775,2.775,0,0,0-2.9,3.2v4.9a2.892,2.892,0,0,0,3,3.2,2.755,2.755,0,0,0,2.9-2.8h1.5a4.279,4.279,0,0,1-4.5,4.4c-2.7,0-4.5-1.8-4.6-4.7v-4.9c0-2.9,1.8-4.8,4.5-4.8A4.337,4.337,0,0,1,132.542,73.642Z" fill="#fff"/>
      <path d="M155.742,78.842c0,2.9-1.8,4.8-4.5,4.8s-4.5-1.8-4.6-4.7v-4.9c0-2.9,1.8-4.8,4.5-4.8s4.5,1.8,4.6,4.7Zm-1.6-4.9a2.892,2.892,0,0,0-3-3.2,2.775,2.775,0,0,0-2.9,3.2v4.9a2.892,2.892,0,0,0,3,3.2,2.775,2.775,0,0,0,2.9-3.2Z" fill="#fff"/>
      <path d="M172.042,76.842l.1,6.3h-1.5l-.1-14h4.8c3,0,4.1,1.9,4.1,3.8a3.507,3.507,0,0,1-3.2,3.8l3.8,6.3h-1.8l-3.8-6.3Zm3.1-6.1h-3.2v4.7h3.2a2.285,2.285,0,0,0,2.5-2.4A2.213,2.213,0,0,0,175.142,70.742Z" fill="#fff"/>
      <path d="M184.842,99.942v-1.5l11-6h-11v-1.5h14v1.5l-11,6h11v1.5Z" fill="#fff"/>
      <path d="M186.342,116.642v6.4h-1.5v-8h14v8h-1.5v-6.4h-4.6v6.4h-1.6v-6.4Z" fill="#fff"/>
      <path d="M191.142,139.442h-6.3v-1.5h14v4.8c0,3-2,4-3.8,4a3.592,3.592,0,0,1-3.8-3.3l-6.4,3.7v-1.8l6.3-3.7Zm6.2,3.2v-3.2h-4.7v3.2a2.263,2.263,0,0,0,2.3,2.5A2.336,2.336,0,0,0,197.342,142.642Z" fill="#fff"/>
    </g>
    <g>
      <path d="M120.742,97.642a3.712,3.712,0,0,1,1.2,5.1,3.907,3.907,0,0,1-1.7,1.4l.2.1a.618.618,0,0,1,.2.7c-.1.3-.4.3-.7.2l-1.2-.8a.574.574,0,0,1-.2-.7.52.52,0,0,1,.4-.2,2.606,2.606,0,0,0,2.2-1.3,2.356,2.356,0,0,0,.3-2,2.982,2.982,0,0,0-1.2-1.7l-2.7-1.7a2.356,2.356,0,0,0-2-.3,2.982,2.982,0,0,0-1.7,1.2,2.356,2.356,0,0,0-.3,2,2.982,2.982,0,0,0,1.2,1.7l.9.6,1.4-2.3c.3-.5,1.2,0,.8.5l-1.7,2.7a.618.618,0,0,1-.7.2l-4-2.5a.515.515,0,1,1,.5-.9l.6.3a3.734,3.734,0,0,1,5.5-4.1Z" fill="#fff"/>
      <path d="M107.842,112.642l8.5,1.1.1-.6c.1-.6,1.1-.5,1,.1l-.3,2.1c0,.7-1.1.5-1-.1l.1-.6-8.5-1.1-.6,4.3,1.1.1a.51.51,0,1,1-.2,1l-1.6-.2a.441.441,0,0,1-.4-.6l.8-6.3c.1-.6,1.1-.5,1,.1Z" fill="#fff"/>
      <path d="M108.342,131.342l8.8-.3-.3-.9a.474.474,0,0,1,.9-.3l.5,1.5a.481.481,0,0,1-.2.6l-8,5.2.2.6a.474.474,0,1,1-.9.3l-.6-2a.419.419,0,0,1,.3-.6.486.486,0,0,1,.6.3l.1.4,1.2-.8-1-3.1h-1.4l.1.4a.474.474,0,1,1-.9.3l-.6-2c-.1-.2.1-.5.3-.6a.486.486,0,0,1,.6.3Zm2.8.9.8,2.5,4.2-2.7Z" fill="#fff"/>
      <path d="M117.142,147.242a.483.483,0,0,1,.7,0,.614.614,0,0,1,.1.6,1.808,1.808,0,0,0,.2,2.1l1.3,1.4a1.612,1.612,0,0,0,1.3.6,1.9,1.9,0,0,0,1.3-.5c.7-.6.7-1.5,0-2.6l-.8-1.2c-.9-1.5-.9-2.9.2-3.8a3.176,3.176,0,0,1,2-.8,2.518,2.518,0,0,1,2,.9l.7.8a2.575,2.575,0,0,1,.7,1.6h.1a.495.495,0,1,1,.7.7l-1.2,1.1a.483.483,0,0,1-.7,0,.471.471,0,0,1-.1-.6,1.682,1.682,0,0,0-.3-2.1l-.7-.8a1.612,1.612,0,0,0-1.3-.6,2.106,2.106,0,0,0-1.3.5,1.793,1.793,0,0,0-.5,1.3c.1.3.1.5.2.8.2.3.1.3.3.5l.8,1.2c.9,1.5.9,2.9-.2,3.9a3.227,3.227,0,0,1-2.1.8,2.665,2.665,0,0,1-2-.9l-1.3-1.4a2.575,2.575,0,0,1-.7-1.6l-.1.1a.495.495,0,0,1-.7-.7Z" fill="#fff"/>
      <path d="M133.042,154.542a3.722,3.722,0,0,1,4.8-2,3.53,3.53,0,0,1,1.7,1.5l.1-.2a.474.474,0,1,1,.9.3l-.5,1.3c-.1.2-.4.4-.6.3s-.2-.2-.3-.4a2.947,2.947,0,0,0-1.6-2,2.562,2.562,0,0,0-2.1,0,2.41,2.41,0,0,0-1.4,1.4l-1.2,2.9a2.667,2.667,0,0,0,3.5,3.4,2.94,2.94,0,0,0,1.5-1.4l.4-1-2.5-1c-.6-.2-.2-1.2.4-.9l2.9,1.2a.446.446,0,0,1,.3.6l-1.8,4.4a.474.474,0,0,1-.9-.3l.3-.6a3.715,3.715,0,0,1-4.9-4.8Z" fill="#fff"/>
      <path d="M148.742,158.842a3.653,3.653,0,0,1,7.3-.3l.1,3.2a3.612,3.612,0,0,1-3.5,3.8,3.673,3.673,0,0,1-3.8-3.5Zm1.1,3.2a2.463,2.463,0,0,0,.9,1.9,2.64,2.64,0,0,0,1.9.7,2.463,2.463,0,0,0,1.9-.9,2.64,2.64,0,0,0,.7-1.9l-.1-3.2a2.463,2.463,0,0,0-.9-1.9,2.64,2.64,0,0,0-1.9-.7,2.463,2.463,0,0,0-1.9.9,2.805,2.805,0,0,0-.7,1.9Z" fill="#fff"/>
      <path d="M162.942,153.042l1.9-1a.515.515,0,1,1,.5.9l-.5.2,3.2,5.6-.6-4.1a.55.55,0,0,1,.3-.5.661.661,0,0,1,.6.1l2.9,2.9-2.6-5.9-.5.2a.515.515,0,1,1-.5-.9l1.9-1a.515.515,0,1,1,.5.9l-.5.3,3.6,8.3a.663.663,0,0,1-.2.7.471.471,0,0,1-.6-.1l-3.7-3.7.8,5.1a.55.55,0,0,1-.3.5.663.663,0,0,1-.7-.2l-4.5-7.8-.5.3a.663.663,0,0,1-.7-.2C162.542,153.442,162.742,153.242,162.942,153.042Z" fill="#fff"/>
    </g>
    <rect x="145.942" y="128.342" width="9.6" height="0.9" fill="#fff"/>
    <g>
      <path d="M143.042,115.242a3.757,3.757,0,0,1,3.7-3.7,3.139,3.139,0,0,1,2.1.7v-.1a.5.5,0,0,1,1,0v1.4a.472.472,0,0,1-.5.5.52.52,0,0,1-.4-.2,2.683,2.683,0,0,0-4.9,1.5v3.2a2.7,2.7,0,0,0,5.4,0v-1.1h-2.7a.5.5,0,0,1,0-1h3.2a.472.472,0,0,1,.5.5v4.7a.5.5,0,0,1-1,0v-.7a3.964,3.964,0,0,1-2.7,1.2,3.757,3.757,0,0,1-3.7-3.7v-3.2Z" fill="#fff"/>
      <path d="M154.342,119.042c1.9-2.1,2.9-3.3,3.1-3.4a1.8,1.8,0,0,0,.3-1.1,1.612,1.612,0,0,0-.6-1.3,1.76,1.76,0,0,0-1.3-.6h-.8a1.612,1.612,0,0,0-1.3.6,1.76,1.76,0,0,0-.6,1.3.5.5,0,0,1-1,0,2.792,2.792,0,0,1,.8-2,2.665,2.665,0,0,1,2-.9h.8a2.518,2.518,0,0,1,2,.9,2.568,2.568,0,0,1,.8,2,3.371,3.371,0,0,1-.5,1.7l-4.4,5h3.9v-1.1a.5.5,0,0,1,1,0v1.6a.472.472,0,0,1-.5.5h-5.5a.5.5,0,0,1-.4-.8C152.642,120.842,153.342,120.042,154.342,119.042Z" fill="#fff"/>
    </g>
  </g>
</svg>
