<svg xmlns="http://www.w3.org/2000/svg" viewBox="0 0 248.283 232.283">
  <title>logo-nyc</title>
  <g>
    <rect x="102.142" y="173.642" width="9.6" height="0.9" fill="#fff"/>
    <g>
      <path d="M64.342,176.342l8.1-2.6-.2-.5c-.2-.6.8-.9.9-.3l.3,1a.365.365,0,0,1-.2.5l-5.5,4,6.9.1a.55.55,0,0,1,.5.3l.3,1a.474.474,0,1,1-.9.3l-.2-.5-8.1,2.6.2.5a.474.474,0,0,1-.9.3l-.6-2a.474.474,0,0,1,.9-.3l.2.5,5.7-1.8-5.3-.1a.494.494,0,0,1-.3-.9l4.3-3.1-5.7,1.8.2.5a.474.474,0,0,1-.9.3l-.6-2c-.1-.2.1-.5.3-.6a.486.486,0,0,1,.6.3Z" fill="#fff"/>
      <path d="M73.042,193.742l7.8-4.1-.6-.7c-.4-.5.3-1.1.7-.7l1.1,1.2a.471.471,0,0,1,.1.6l-5,8.1.5.5a.495.495,0,1,1-.7.7l-1.4-1.5a.495.495,0,0,1,.7-.7l.3.3.7-1.2-2.2-2.3-1.3.7.3.3c.4.5-.3,1.1-.7.7l-1.4-1.5a.495.495,0,1,1,.7-.7Zm2.8-.4,1.8,1.9,2.6-4.2Z" fill="#fff"/>
      <path d="M88.142,205.542l3.1-7.9-.5-.2c-.6-.2-.2-1.2.4-.9l1,.4c.2.1.3.2.3.4l1.2,8.9,2.6-6.6-.5-.2c-.6-.2-.2-1.2.4-.9l2,.8c.6.2.2,1.2-.4.9l-.5-.2-3.3,8.4a.55.55,0,0,1-.5.3h-.1c-.2-.1-.3-.2-.3-.4l-1.2-8.9-2.6,6.6.5.2c.6.2.2,1.2-.4.9l-2-.8c-.6-.2-.2-1.2.4-.9Z" fill="#fff"/>
      <path d="M105.542,204.042a3.615,3.615,0,0,1,3.4-3.9,3.5,3.5,0,0,1,2.2.6v-.2a.5.5,0,1,1,1,0l.1,1.4a.458.458,0,0,1-.4.5.52.52,0,0,1-.4-.2,2.845,2.845,0,0,0-2.3-1.1,2.43,2.43,0,0,0-1.8.9,2.805,2.805,0,0,0-.7,1.9l.2,3.2a2.271,2.271,0,0,0,.9,1.8,2.805,2.805,0,0,0,1.9.7,2.271,2.271,0,0,0,1.8-.9,2.805,2.805,0,0,0,.7-1.9.5.5,0,0,1,1,0,3.709,3.709,0,0,1-7.4.5Z" fill="#fff"/>
      <path d="M124.242,206.242l.5-.3-4-7.5-.5.3a.663.663,0,0,1-.7-.2.618.618,0,0,1,.2-.7l1.9-1a.663.663,0,0,1,.7.2.618.618,0,0,1-.2.7l-.5.3,1.8,3.3,3.8-2-1.8-3.3-.5.3a.618.618,0,0,1-.7-.2c-.2-.2,0-.5.2-.7l1.9-1a.515.515,0,1,1,.5.9l-.5.3,4,7.5.5-.3a.618.618,0,0,1,.7.2.663.663,0,0,1-.2.7l-1.9,1a.515.515,0,0,1-.5-.9l.5-.3-1.8-3.3-3.8,2,1.8,3.3.5-.3a.618.618,0,0,1,.7.2.663.663,0,0,1-.2.7l-1.9,1a.663.663,0,0,1-.7-.2A.618.618,0,0,1,124.242,206.242Z" fill="#fff"/>
      <path d="M140.042,194.642l.3-.5-6.8-5.1-.3.5a.5.5,0,0,1-.8-.6l3.8-5.1a.494.494,0,0,1,.7-.1l1.3.9a.5.5,0,1,1-.6.8l-.9-.7-2.6,3.4,3,2.3,1.6-2.1c.4-.5,1.2.1.8.6l-1.6,2.1,3,2.2,2.6-3.4-.9-.7a.5.5,0,0,1,.6-.8l1.3.9c.2.2.3.5.1.7l-3.8,5.1c-.2.2-.5.3-.7.1S139.842,194.842,140.042,194.642Z" fill="#fff"/>
      <path d="M147.842,178.442a.548.548,0,0,1-.4-.6.43.43,0,0,1,.4-.4,1.938,1.938,0,0,0,1.6-1.4l.4-1.8a1.817,1.817,0,0,0-.3-1.4,1.991,1.991,0,0,0-1.2-.8q-1.35-.3-2.1,1.5l-.5,1.4c-.7,1.6-1.8,2.4-3.2,2.1a2.912,2.912,0,0,1-1.8-1.2,2.691,2.691,0,0,1-.4-2.1l.2-1.1a2.371,2.371,0,0,1,.9-1.5h-.1a.51.51,0,1,1,.2-1l1.6.3a.548.548,0,0,1,.4.6.43.43,0,0,1-.4.4,1.938,1.938,0,0,0-1.6,1.4l-.2,1.1a1.817,1.817,0,0,0,.3,1.4,1.991,1.991,0,0,0,1.2.8,1.687,1.687,0,0,0,1.4-.4,3.171,3.171,0,0,0,.5-.6,3.208,3.208,0,0,0,.3-.5l.5-1.4c.7-1.6,1.9-2.4,3.2-2.1a2.912,2.912,0,0,1,1.8,1.2,2.691,2.691,0,0,1,.4,2.1l-.4,1.8a2.371,2.371,0,0,1-.9,1.5h.1a.675.675,0,0,1,.4.6c0,.3-.3.4-.6.4Z" fill="#fff"/>
      <path d="M141.542,162.142c-.3.1-.5-.1-.6-.4l-1.4-6.2c-.1-.3.1-.5.4-.6l1.6-.3c.3-.1.5.1.6.4s-.1.5-.4.6l-1.1.2.5,2.1,8.3-1.8-.3-1.6a.512.512,0,0,1,1-.2l.9,4.1c.1.2-.1.5-.4.6s-.5-.1-.6-.4l-.3-1.6-8.3,1.8.5,2.1,1.1-.2c.3-.1.5.1.6.4s-.1.5-.4.6Z" fill="#fff"/>
      <path d="M143.642,142.142l-.3-.5-6.8,5.1.3.5a.5.5,0,1,1-.8.6l-3.8-5.1a.494.494,0,0,1,.1-.7l1.3-1a.5.5,0,0,1,.6.8l-.9.7,2.6,3.4,3-2.3-1.6-2.1c-.4-.5.4-1.1.8-.6l1.6,2.1,3-2.3-2.6-3.4-.9.7a.5.5,0,0,1-.6-.8l1.3-1a.494.494,0,0,1,.7.1l3.8,5.1a.5.5,0,0,1-.1.7A.385.385,0,0,1,143.642,142.142Z" fill="#fff"/>
      <path d="M130.042,128.842l-4,7.5.5.3c.6.3.1,1.2-.5.9l-3.6-1.9a2.5,2.5,0,0,1-1.3-1.7,2.833,2.833,0,0,1,.2-2.2,2.539,2.539,0,0,1,1.4-1.3,2.51,2.51,0,0,1,1.9-.1l-.1-4.3-.7-.4c-.6-.3-.1-1.2.5-.9l1.9,1c.6.3.1,1.2-.5.9l-.2-.1.1,4.3,1.6.8,1.8-3.3-.5-.3c-.6-.3-.1-1.2.5-.9l1.9,1a.574.574,0,0,1,.2.7c-.1.3-.4.3-.7.2Zm-3.1,3.7-2.2-1.2a1.691,1.691,0,0,0-1.4-.1,2.008,2.008,0,0,0-1.1.9,1.72,1.72,0,0,0-.1,1.4,1.441,1.441,0,0,0,.9,1.1l2.2,1.2Z" fill="#fff"/>
    </g>
    <g>
      <path d="M99.642,166.442v-8.5h-.6a.5.5,0,0,1,0-1h1.1a.55.55,0,0,1,.5.3l2.2,6.5,2.2-6.5a.462.462,0,0,1,.5-.3h1.1a.5.5,0,0,1,0,1h-.6v8.5h.6a.5.5,0,0,1,0,1h-2.1a.5.5,0,0,1,0-1h.6v-6l-1.7,5a.487.487,0,0,1-.9,0l-1.7-5v6h.6a.5.5,0,0,1,0,1h-2.1a.5.5,0,1,1,0-1Z" fill="#fff"/>
      <path d="M111.542,166.442v-8.2l-2,1.2a.349.349,0,0,0-.2.1.472.472,0,0,1-.5-.5.52.52,0,0,1,.2-.4l2.8-1.6c.1,0,.2-.1.3-.1a.472.472,0,0,1,.5.5v9h2.3a.5.5,0,0,1,0,1h-5.5a.5.5,0,0,1,0-1Z" fill="#fff"/>
    </g>
    <g>
      <path d="M72.042,69.342h-1.5l-6-11v11h-1.5v-14h1.5l6,11v-11h1.5Z" fill="#fff"/>
      <path d="M65.242,99.742h6.4v1.5h-7.9v-14h7.9v1.5h-6.4v4.6h6.4v1.5h-6.4Z" fill="#fff"/>
      <path d="M67.542,123.642l-2.7,9.6h-1.5l-2.6-14h1.5l2,10.9,2.5-8.9h1.5l2.5,8.9,2-10.9h1.5l-2.6,14h-1.5Z" fill="#fff"/>
    </g>
    <g>
      <path d="M98.242,38.142h-1.5v-5.6l-4.6-8.4h1.7l3.7,6.8,3.6-6.8h1.7l-4.6,8.4v5.6Z" fill="#fff"/>
      <path d="M101.942,65.542c0,2.9-1.8,4.7-4.5,4.7s-4.5-1.8-4.5-4.7v-4.9c0-2.9,1.8-4.7,4.5-4.7s4.5,1.8,4.5,4.7Zm-1.5-4.9a3.006,3.006,0,1,0-6,0v4.9a3.006,3.006,0,1,0,6,0Z" fill="#fff"/>
      <path d="M94.842,95.642v6.3h-1.5v-14h4.8c3,0,4,2,4,3.8a3.592,3.592,0,0,1-3.3,3.8l3.7,6.4h-1.8l-3.7-6.3Zm3.2-6.1h-3.2v4.7h3.2a2.355,2.355,0,1,0,0-4.7Z" fill="#fff"/>
      <path d="M94.542,133.942h-1.5v-14h1.5v7.6l6.5-7.6h2l-4.9,5.8,5.4,8.2h-1.8l-4.6-7-2.5,2.9v4.1Z" fill="#fff"/>
    </g>
  </g>
</svg>
