<svg xmlns="http://www.w3.org/2000/svg" viewBox="0 0 248.283 232.283">
  <title>logo-leeds</title>
  <g>
    <rect x="182.742" y="68.842" width="9.6" height="0.9" fill="#fff"/>
    <g>
      <path d="M112.942,99.442h1.6a2.956,2.956,0,0,0,3,2.8c1.6,0,2.7-.7,2.7-2.2,0-1.3-.7-2-2.3-2.5l-1.8-.5a3.9,3.9,0,0,1-2.9-4c0-2.4,1.9-3.7,4.1-3.7a3.937,3.937,0,0,1,4.2,3.7h-1.6a2.519,2.519,0,0,0-2.6-2.2c-1.7,0-2.6,1-2.6,2.2a2.375,2.375,0,0,0,2.1,2.5l1.6.5c2,.6,3.3,1.8,3.3,4s-1.4,3.7-4.2,3.7A4.4,4.4,0,0,1,112.942,99.442Z" fill="#fff"/>
      <path d="M144.742,99.042a5.467,5.467,0,0,1-.8,2.9l1.6,1.6-1,1-1.5-1.5a4.232,4.232,0,0,1-2.8.8c-2.7,0-4.5-1.8-4.5-4.7v-5c0-2.9,1.8-4.7,4.5-4.7s4.5,1.8,4.5,4.7v4.9Zm-4.4,1.1,1-1,1.5,1.5a4.256,4.256,0,0,0,.4-1.7v-4.8a3.006,3.006,0,1,0-6,0v4.9a2.892,2.892,0,0,0,3,3.2,3.371,3.371,0,0,0,1.7-.5Z" fill="#fff"/>
      <path d="M159.542,89.542h1.5v9.4a3.006,3.006,0,1,0,6,0v-9.4h1.5v9.4c0,2.9-1.8,4.7-4.5,4.7s-4.5-1.8-4.5-4.7Z" fill="#fff"/>
      <path d="M120.442,140.742h-5.1l-1.3,3.9h-1.6l4.5-14h1.8l4.5,14h-1.6Zm-2.5-7.9-2.1,6.5h4.2Z" fill="#fff"/>
      <path d="M138.642,138.442v6.3h-1.5v-14h4.8c3,0,4,2,4,3.8a3.592,3.592,0,0,1-3.3,3.8l3.7,6.4h-1.8l-3.7-6.3Zm3.3-6.2h-3.2v4.7h3.2a2.263,2.263,0,0,0,2.5-2.3A2.393,2.393,0,0,0,141.942,132.242Z" fill="#fff"/>
      <path d="M162.042,143.242h6.4v1.5h-8v-14h8v1.5h-6.4v4.6h6.4v1.5h-6.4Z" fill="#fff"/>
    </g>
    <g>
      <path d="M176.242,61.642v-8.5h-.6a.5.5,0,0,1,0-1h2.1a.5.5,0,1,1,0,1h-.6v8.5h4.3v-1.1a.5.5,0,0,1,1,0v1.6a.472.472,0,0,1-.5.5h-6.3a.5.5,0,0,1,0-1Z" fill="#fff"/>
      <path d="M184.142,60.542a.472.472,0,0,1,.5-.5.55.55,0,0,1,.5.3,1.8,1.8,0,0,0,1.7,1.3h1.9a1.76,1.76,0,0,0,1.3-.6,1.656,1.656,0,0,0,.5-1.3c0-.9-.6-1.5-1.9-1.8l-1.5-.2c-1.7-.3-2.7-1.3-2.7-2.7a2.792,2.792,0,0,1,.8-2,2.665,2.665,0,0,1,2-.9h1.1a2.716,2.716,0,0,1,1.7.6v-.1a.5.5,0,1,1,1,0v1.6a.472.472,0,0,1-.5.5.51.51,0,0,1-.5-.4,1.839,1.839,0,0,0-1.7-1.2h-1.2a1.76,1.76,0,0,0-1.3.6,2.106,2.106,0,0,0-.5,1.3,1.782,1.782,0,0,0,.6,1.3,2.506,2.506,0,0,0,.7.4l.6.2,1.5.2c1.7.3,2.7,1.3,2.7,2.7a2.792,2.792,0,0,1-.8,2,2.568,2.568,0,0,1-2,.8h-1.9a2.716,2.716,0,0,1-1.7-.6v.1a.5.5,0,0,1-1,0v-1.6Z" fill="#fff"/>
      <path d="M195.742,61.642v-8.2l-2,1.2a.349.349,0,0,0-.2.1.472.472,0,0,1-.5-.5.52.52,0,0,1,.2-.4l2.8-1.6c.1,0,.2-.1.3-.1a.472.472,0,0,1,.5.5v9h2.3a.5.5,0,0,1,0,1h-5.5a.5.5,0,0,1,0-1Z" fill="#fff"/>
    </g>
    <g>
      <path d="M75.442,131.842l8.5-.2v-.6c0-.6,1-.7,1,0v2.1c.1.7-1,.7-1,0v-.6l-8.5.2.1,4.3h1.1a.5.5,0,0,1,0,1h-1.6a.472.472,0,0,1-.5-.5l-.2-6.3c0-.6,1-.7,1,0Z" fill="#fff"/>
      <path d="M78.142,149.542l.2.5,7.8-3.4-.2-.5a.474.474,0,0,1,.9-.3l2.5,5.8a.419.419,0,0,1-.3.6l-1.5.6c-.3.1-.5,0-.7-.3a.419.419,0,0,1,.3-.6l1-.4-1.7-3.9-3.3,1.5,1.1,2.5c.3.6-.7,1-.9.4l-1.1-2.5-3.5,1.5,1.7,3.9,1-.4a.474.474,0,1,1,.3.9l-1.5.6c-.3.1-.5,0-.7-.3l-2.5-5.8c-.1-.3,0-.5.3-.7C77.742,149.242,78.042,149.342,78.142,149.542Z" fill="#fff"/>
      <path d="M87.542,165.442l.4.4,6-6.1-.4-.4a.495.495,0,0,1,.7-.7l4.5,4.5a.483.483,0,0,1,0,.7l-1.1,1.1a.495.495,0,0,1-.7-.7l.8-.8-3.1-3-2.7,2.7,1.9,1.9a.5.5,0,1,1-.7.7l-1.9-1.9-2.6,2.7,3.1,3,.8-.8a.5.5,0,1,1,.7.7l-1.1,1.1a.483.483,0,0,1-.7,0l-4.5-4.5a.43.43,0,1,1,.6-.6Z" fill="#fff"/>
      <path d="M102.342,176.742l.5.2,3.3-7.9-.5-.2a.474.474,0,0,1,.3-.9l2.9,1.2a3.722,3.722,0,0,1,2,4.8l-1.2,2.9a3.722,3.722,0,0,1-4.8,2l-2.9-1.2a.446.446,0,0,1-.3-.6A.517.517,0,0,1,102.342,176.742Zm1.4.6,1.5.6a2.332,2.332,0,0,0,2,0,2.94,2.94,0,0,0,1.5-1.4l1.2-2.9a2.332,2.332,0,0,0,0-2,2.94,2.94,0,0,0-1.4-1.5l-1.5-.6Z" fill="#fff"/>
      <path d="M119.542,180.542a.472.472,0,0,1,.5-.5.55.55,0,0,1,.5.3,1.714,1.714,0,0,0,1.7,1.3h1.9a2.106,2.106,0,0,0,1.3-.5,2.232,2.232,0,0,0,.6-1.3c0-.9-.6-1.5-1.9-1.8l-1.5-.3c-1.7-.4-2.7-1.3-2.7-2.8a2.792,2.792,0,0,1,.8-2,2.568,2.568,0,0,1,2-.8h1.1a2.716,2.716,0,0,1,1.7.6v-.1a.5.5,0,0,1,1,0v1.6a.472.472,0,0,1-.5.5.51.51,0,0,1-.5-.4,1.743,1.743,0,0,0-1.7-1.2h-1.1a1.715,1.715,0,0,0-1.8,1.8,1.782,1.782,0,0,0,.6,1.3,2.506,2.506,0,0,0,.7.4l.6.2,1.5.3c1.7.4,2.7,1.4,2.7,2.8a2.792,2.792,0,0,1-.8,2,2.973,2.973,0,0,1-2,.8h-1.9a2.716,2.716,0,0,1-1.7-.6v.1a.5.5,0,1,1-1,0Z" fill="#fff"/>
    </g>
  </g>
</svg>
